#!OML:ASF G:\ViconDB\ViconDB\414\test\team2\shane.ASF
:FULLY-SPECIFIED
:DEGREES
362
root 19.0558 16.8106 -1.26142 -185.565 9.67282 -172.102
lowerback 9.92518 2.75795 6.22675
upperback 2.7764 4.59325 1.14331
thorax -2.27235 2.39374 -2.8274
lowerneck -14.6484 -4.3404 -5.6497
upperneck 21.617 -7.2053 7.01112
head 9.72034 -3.35851 2.40037
rclavicle -1.70458e-014 -2.22639e-014
rhumerus -15.8983 11.6663 -89.0664
rradius 34.2637
rwrist 34.1265
rhand -32.2202 -16.0829
rfingers 7.12502
rthumb -5.46136 -45.9925
lclavicle -1.70458e-014 -2.22639e-014
lhumerus -45.4334 -3.18287 76.5626
lradius 14.2689
lwrist -27.8425
lhand -36.1063 6.91742
lfingers 7.12502
lthumb -9.21238 36.6962
rfemur 27.4313 -17.2875 16.9294
rtibia -5.08889e-014
rfoot -12.9734 -1.20317
rtoes -14.8845
lfemur -21.4665 22.3153 -12.2514
ltibia 29.0151
lfoot -23.7435 -19.6118
ltoes -14.9503
363
root 19.0717 16.8017 -1.43096 -185.4 9.55035 -171.791
lowerback 9.60636 2.84288 6.64179
upperback 2.71416 4.71499 1.10876
thorax -2.11298 2.45475 -3.08454
lowerneck -14.8832 -4.29465 -5.3669
upperneck 21.6685 -7.15685 6.87862
head 9.7637 -3.31652 2.30993
rclavicle 1.40392e-014 -2.26615e-014
rhumerus -15.8501 12.1306 -89.1123
rradius 34.9785
rwrist 33.9829
rhand -32.0268 -15.4504
rfingers 7.12502
rthumb -5.27465 -45.3648
lclavicle 1.40392e-014 -2.26615e-014
lhumerus -45.8099 -2.85213 75.9106
lradius 14.1376
lwrist -28.2115
lhand -36.1155 7.40487
lfingers 7.12502
lthumb -9.22121 37.1832
rfemur 27.8604 -17.0449 17.2342
rtibia -8.26944e-014
rfoot -12.8502 -1.8008
rtoes -16.1998
lfemur -22.1488 23.8824 -12.6036
ltibia 29.053
lfoot -23.6985 -19.5813
ltoes -15.1145
364
root 19.0867 16.7862 -1.58277 -185.261 9.13787 -171.639
lowerback 9.72868 2.79189 6.77717
upperback 2.48152 4.66197 1.04723
thorax -2.41172 2.40468 -3.23639
lowerneck -14.6471 -4.27306 -5.30785
upperneck 21.5615 -7.16014 6.9278
head 9.6814 -3.31728 2.32062
rclavicle -2.78299e-014 1.59028e-015
rhumerus -15.84 12.9616 -89.2932
rradius 35.5217
rwrist 33.1717
rhand -32.2466 -15.3002
rfingers 7.12502
rthumb -5.4868 -45.2092
lclavicle -2.78299e-014 1.59028e-015
lhumerus -46.4279 -2.9554 75.5831
lradius 14.0343
lwrist -28.0293
lhand -36.2686 7.58052
lfingers 7.12502
lthumb -9.36896 37.3523
rfemur 28.3333 -17.0579 17.3131
rtibia 1.27222e-014
rfoot -12.7736 -2.02828
rtoes -17.0539
lfemur -22.7808 25.4362 -13.2113
ltibia 29.1739
lfoot -23.6282 -19.975
ltoes -14.6323
365
root 19.0925 16.7677 -1.75404 -185.183 9.18199 -171.517
lowerback 9.47669 2.89302 6.81046
upperback 2.46171 4.78114 1.15176
thorax -2.28741 2.4671 -3.14107
lowerneck -14.9195 -4.24318 -5.22786
upperneck 21.6743 -7.04184 6.63971
head 9.7498 -3.27174 2.21928
rclavicle -2.16675e-014 2.38542e-015
rhumerus -15.7248 13.5875 -89.1315
rradius 36.0242
rwrist 33.1206
rhand -31.9589 -14.8983
rfingers 7.12502
rthumb -5.20908 -44.8143
lclavicle -2.16675e-014 2.38542e-015
lhumerus -46.7925 -2.60115 75.4431
lradius 13.8442
lwrist -28.07
lhand -36.1359 7.48283
lfingers 7.12502
lthumb -9.24097 37.2603
rfemur 28.871 -16.5572 17.2686
rtibia 9.22361e-014
rfoot -12.5645 -2.08689
rtoes -17.2062
lfemur -22.6348 25.594 -13.3215
ltibia 29.4451
lfoot -24.0377 -18.6696
ltoes -14.8724
366
root 19.1021 16.7402 -1.91752 -185.062 9.02156 -171.406
lowerback 9.4216 2.93117 6.96948
upperback 2.29971 4.83122 1.05255
thorax -2.39826 2.47707 -3.33907
lowerneck -14.8538 -4.23391 -5.23588
upperneck 21.606 -7.07519 6.83492
head 9.72384 -3.27048 2.28497
rclavicle 2.52953e-014 7.95139e-015
rhumerus -15.7649 13.8117 -89.2852
rradius 36.4503
rwrist 33.1784
rhand -31.7277 -14.478
rfingers 7.12502
rthumb -4.98579 -44.3993
lclavicle 2.52953e-014 7.95139e-015
lhumerus -47.1841 -2.58709 75.1646
lradius 13.7233
lwrist -28.1666
lhand -36.0608 7.75904
lfingers 7.12502
lthumb -9.16843 37.5397
rfemur 29.3465 -16.3041 17.3158
rtibia 4.45278e-014
rfoot -12.3797 -2.43598
rtoes -18.8856
lfemur -22.3298 25.0412 -13.3
ltibia 29.7865
lfoot -24.0655 -17.1119
ltoes -14.704
367
root 19.1045 16.699 -2.08308 -184.944 8.8921 -171.243
lowerback 9.27937 2.9502 6.99475
upperback 2.18375 4.84739 1.1313
thorax -2.44364 2.47727 -3.26785
lowerneck -15.0879 -4.12858 -5.126
upperneck 21.7024 -6.90463 6.69809
head 9.7809 -3.18671 2.23891
rclavicle 2.86001e-014 2.38542e-014
rhumerus -15.9179 14.1536 -89.2946
rradius 36.8686
rwrist 33.4845
rhand -31.6036 -14.2238
rfingers 7.12502
rthumb -4.86595 -44.148
lclavicle 2.86001e-014 2.38542e-014
lhumerus -47.4503 -1.43042 74.2874
lradius 13.305
lwrist -29.3167
lhand -35.9366 7.7758
lfingers 7.12502
lthumb -9.04861 37.5617
rfemur 29.8713 -15.9793 17.3134
rtibia 3.49861e-014
rfoot -12.169 -2.38515
rtoes -19.4093
lfemur -21.8462 24.3501 -13.1877
ltibia 30.1952
lfoot -23.7227 -15.8044
ltoes -14.6457
